<mxfile host="Electron" agent="Mozilla/5.0 (Windows NT 10.0; Win64; x64) AppleWebKit/537.36 (KHTML, like Gecko) draw.io/26.0.9 Chrome/128.0.6613.186 Electron/32.2.5 Safari/537.36" version="26.0.9">
  <diagram name="Page-1" id="AvIdeAechK8DiAcOggY4">
    <mxGraphModel dx="2072" dy="1212" grid="1" gridSize="10" guides="1" tooltips="1" connect="1" arrows="1" fold="1" page="1" pageScale="1" pageWidth="827" pageHeight="1169" math="0" shadow="0">
      <root>
        <mxCell id="0" />
        <mxCell id="1" parent="0" />
        <mxCell id="4S7sWg-9xK0tMgOKGb8R-126" value="" style="rounded=0;whiteSpace=wrap;html=1;fillColor=none;" vertex="1" parent="1">
          <mxGeometry x="250" y="80" width="1310" height="1130" as="geometry" />
        </mxCell>
        <mxCell id="4S7sWg-9xK0tMgOKGb8R-123" value="" style="verticalLabelPosition=bottom;verticalAlign=top;html=1;shape=mxgraph.basic.tick;fillColor=#dae8fc;strokeColor=#6c8ebf;fillStyle=solid;" vertex="1" parent="1">
          <mxGeometry x="1520" y="190" width="30" height="30" as="geometry" />
        </mxCell>
        <mxCell id="4S7sWg-9xK0tMgOKGb8R-1" value="&lt;b&gt;&lt;font style=&quot;font-size: 32px;&quot;&gt;ELT&lt;/font&gt;&lt;/b&gt;" style="ellipse;whiteSpace=wrap;html=1;sketch=1;curveFitting=1;jiggle=2;shadow=0;fillColor=#f5f5f5;fillStyle=hachure;fontFamily=Comic Sans MS;fontSize=11;fontColor=#333333;strokeColor=#666666;strokeWidth=5;" vertex="1" parent="1">
          <mxGeometry x="839" y="520" width="141" height="140" as="geometry" />
        </mxCell>
        <mxCell id="4S7sWg-9xK0tMgOKGb8R-2" value="&lt;b&gt;E&lt;/b&gt;&lt;font style=&quot;font-size: 17px;&quot;&gt;xtraction&lt;/font&gt;" style="ellipse;whiteSpace=wrap;html=1;sketch=1;curveFitting=1;jiggle=2;shadow=0;fillColor=#d5e8d4;fillStyle=hachure;fontFamily=Comic Sans MS;fontSize=32;strokeColor=#82b366;" vertex="1" parent="1">
          <mxGeometry x="650" y="400" width="110" height="90" as="geometry" />
        </mxCell>
        <mxCell id="4S7sWg-9xK0tMgOKGb8R-3" value="&lt;b&gt;L&lt;/b&gt;&lt;font style=&quot;font-size: 17px;&quot;&gt;oad&lt;/font&gt;" style="ellipse;whiteSpace=wrap;html=1;sketch=1;curveFitting=1;jiggle=2;shadow=0;fillColor=#dae8fc;fillStyle=hachure;fontFamily=Comic Sans MS;fontSize=32;strokeColor=#6c8ebf;" vertex="1" parent="1">
          <mxGeometry x="1040" y="400" width="110" height="90" as="geometry" />
        </mxCell>
        <mxCell id="4S7sWg-9xK0tMgOKGb8R-4" value="&lt;b&gt;T&lt;/b&gt;&lt;font style=&quot;font-size: 17px;&quot;&gt;ransformation&lt;/font&gt;" style="ellipse;whiteSpace=wrap;html=1;sketch=1;curveFitting=1;jiggle=2;shadow=0;fillColor=#fff2cc;fillStyle=hachure;fontFamily=Comic Sans MS;fontSize=32;strokeColor=#d6b656;" vertex="1" parent="1">
          <mxGeometry x="824" y="760" width="160" height="130" as="geometry" />
        </mxCell>
        <mxCell id="4S7sWg-9xK0tMgOKGb8R-31" style="edgeStyle=orthogonalEdgeStyle;rounded=0;orthogonalLoop=1;jettySize=auto;html=1;exitX=0.5;exitY=0;exitDx=0;exitDy=0;entryX=0.5;entryY=1;entryDx=0;entryDy=0;sketch=1;jiggle=2;curveFitting=1;strokeColor=#82b366;align=center;verticalAlign=middle;fontFamily=Helvetica;fontSize=11;fontColor=default;labelBackgroundColor=default;endArrow=classic;fillColor=#d5e8d4;" edge="1" parent="1" source="4S7sWg-9xK0tMgOKGb8R-5" target="4S7sWg-9xK0tMgOKGb8R-10">
          <mxGeometry relative="1" as="geometry" />
        </mxCell>
        <mxCell id="4S7sWg-9xK0tMgOKGb8R-32" style="edgeStyle=orthogonalEdgeStyle;rounded=0;orthogonalLoop=1;jettySize=auto;html=1;exitX=0.5;exitY=0;exitDx=0;exitDy=0;entryX=0.5;entryY=1;entryDx=0;entryDy=0;sketch=1;curveFitting=1;jiggle=2;fillColor=#d5e8d4;strokeColor=#82b366;" edge="1" parent="1" source="4S7sWg-9xK0tMgOKGb8R-5" target="4S7sWg-9xK0tMgOKGb8R-9">
          <mxGeometry relative="1" as="geometry" />
        </mxCell>
        <mxCell id="4S7sWg-9xK0tMgOKGb8R-5" value="Extraction&lt;br&gt;&lt;b&gt;Methods&lt;/b&gt;" style="rounded=0;whiteSpace=wrap;html=1;fillColor=none;sketch=1;curveFitting=1;jiggle=2;strokeColor=#82b366;fontFamily=Comic Sans MS;fontSize=14;" vertex="1" parent="1">
          <mxGeometry x="655" y="300" width="100" height="40" as="geometry" />
        </mxCell>
        <mxCell id="4S7sWg-9xK0tMgOKGb8R-33" style="edgeStyle=orthogonalEdgeStyle;rounded=0;orthogonalLoop=1;jettySize=auto;html=1;exitX=0;exitY=0.5;exitDx=0;exitDy=0;entryX=1;entryY=0.5;entryDx=0;entryDy=0;sketch=1;jiggle=2;curveFitting=1;strokeColor=#82b366;align=center;verticalAlign=middle;fontFamily=Helvetica;fontSize=11;fontColor=default;labelBackgroundColor=default;endArrow=classic;fillColor=#d5e8d4;" edge="1" parent="1" source="4S7sWg-9xK0tMgOKGb8R-6" target="4S7sWg-9xK0tMgOKGb8R-11">
          <mxGeometry relative="1" as="geometry" />
        </mxCell>
        <mxCell id="4S7sWg-9xK0tMgOKGb8R-34" style="edgeStyle=orthogonalEdgeStyle;rounded=0;orthogonalLoop=1;jettySize=auto;html=1;exitX=0;exitY=0.5;exitDx=0;exitDy=0;entryX=1;entryY=0.5;entryDx=0;entryDy=0;sketch=1;jiggle=2;curveFitting=1;strokeColor=#82b366;align=center;verticalAlign=middle;fontFamily=Helvetica;fontSize=11;fontColor=default;labelBackgroundColor=default;endArrow=classic;fillColor=#d5e8d4;" edge="1" parent="1" source="4S7sWg-9xK0tMgOKGb8R-6" target="4S7sWg-9xK0tMgOKGb8R-12">
          <mxGeometry relative="1" as="geometry" />
        </mxCell>
        <mxCell id="4S7sWg-9xK0tMgOKGb8R-6" value="Extract&lt;br&gt;&lt;b&gt;Types&lt;/b&gt;" style="rounded=0;whiteSpace=wrap;html=1;fillColor=none;sketch=1;curveFitting=1;jiggle=2;strokeColor=#82b366;fontFamily=Comic Sans MS;fontSize=14;" vertex="1" parent="1">
          <mxGeometry x="460" y="360" width="100" height="40" as="geometry" />
        </mxCell>
        <mxCell id="4S7sWg-9xK0tMgOKGb8R-36" style="edgeStyle=orthogonalEdgeStyle;rounded=0;orthogonalLoop=1;jettySize=auto;html=1;exitX=0;exitY=0.5;exitDx=0;exitDy=0;entryX=0.5;entryY=1;entryDx=0;entryDy=0;sketch=1;jiggle=2;curveFitting=1;strokeColor=#82b366;align=center;verticalAlign=middle;fontFamily=Helvetica;fontSize=11;fontColor=default;labelBackgroundColor=default;endArrow=classic;fillColor=#d5e8d4;" edge="1" parent="1" source="4S7sWg-9xK0tMgOKGb8R-7" target="4S7sWg-9xK0tMgOKGb8R-16">
          <mxGeometry relative="1" as="geometry" />
        </mxCell>
        <mxCell id="4S7sWg-9xK0tMgOKGb8R-37" style="edgeStyle=orthogonalEdgeStyle;rounded=0;orthogonalLoop=1;jettySize=auto;html=1;exitX=0;exitY=0.5;exitDx=0;exitDy=0;entryX=1;entryY=0.5;entryDx=0;entryDy=0;sketch=1;jiggle=2;curveFitting=1;strokeColor=#82b366;align=center;verticalAlign=middle;fontFamily=Helvetica;fontSize=11;fontColor=default;labelBackgroundColor=default;endArrow=classic;fillColor=#d5e8d4;" edge="1" parent="1" source="4S7sWg-9xK0tMgOKGb8R-7" target="4S7sWg-9xK0tMgOKGb8R-13">
          <mxGeometry relative="1" as="geometry" />
        </mxCell>
        <mxCell id="4S7sWg-9xK0tMgOKGb8R-38" style="edgeStyle=orthogonalEdgeStyle;rounded=0;orthogonalLoop=1;jettySize=auto;html=1;exitX=0;exitY=0.5;exitDx=0;exitDy=0;entryX=1;entryY=0.5;entryDx=0;entryDy=0;sketch=1;jiggle=2;curveFitting=1;strokeColor=#82b366;align=center;verticalAlign=middle;fontFamily=Helvetica;fontSize=11;fontColor=default;labelBackgroundColor=default;endArrow=classic;fillColor=#d5e8d4;" edge="1" parent="1" source="4S7sWg-9xK0tMgOKGb8R-7" target="4S7sWg-9xK0tMgOKGb8R-14">
          <mxGeometry relative="1" as="geometry" />
        </mxCell>
        <mxCell id="4S7sWg-9xK0tMgOKGb8R-39" style="edgeStyle=orthogonalEdgeStyle;rounded=0;orthogonalLoop=1;jettySize=auto;html=1;exitX=0;exitY=0.5;exitDx=0;exitDy=0;entryX=1;entryY=0.5;entryDx=0;entryDy=0;sketch=1;jiggle=2;curveFitting=1;strokeColor=#82b366;align=center;verticalAlign=middle;fontFamily=Helvetica;fontSize=11;fontColor=default;labelBackgroundColor=default;endArrow=classic;fillColor=#d5e8d4;" edge="1" parent="1" source="4S7sWg-9xK0tMgOKGb8R-7" target="4S7sWg-9xK0tMgOKGb8R-15">
          <mxGeometry relative="1" as="geometry" />
        </mxCell>
        <mxCell id="4S7sWg-9xK0tMgOKGb8R-41" style="edgeStyle=orthogonalEdgeStyle;rounded=0;orthogonalLoop=1;jettySize=auto;html=1;exitX=0;exitY=0.5;exitDx=0;exitDy=0;entryX=0.5;entryY=0;entryDx=0;entryDy=0;sketch=1;jiggle=2;curveFitting=1;strokeColor=#82b366;align=center;verticalAlign=middle;fontFamily=Helvetica;fontSize=11;fontColor=default;labelBackgroundColor=default;endArrow=classic;fillColor=#d5e8d4;" edge="1" parent="1" source="4S7sWg-9xK0tMgOKGb8R-7" target="4S7sWg-9xK0tMgOKGb8R-18">
          <mxGeometry relative="1" as="geometry" />
        </mxCell>
        <mxCell id="4S7sWg-9xK0tMgOKGb8R-42" style="edgeStyle=orthogonalEdgeStyle;rounded=0;orthogonalLoop=1;jettySize=auto;html=1;exitX=0;exitY=0.5;exitDx=0;exitDy=0;entryX=0.5;entryY=1;entryDx=0;entryDy=0;sketch=1;jiggle=2;curveFitting=1;strokeColor=#82b366;align=center;verticalAlign=middle;fontFamily=Helvetica;fontSize=11;fontColor=default;labelBackgroundColor=default;endArrow=classic;fillColor=#d5e8d4;" edge="1" parent="1" source="4S7sWg-9xK0tMgOKGb8R-7" target="4S7sWg-9xK0tMgOKGb8R-19">
          <mxGeometry relative="1" as="geometry">
            <Array as="points">
              <mxPoint x="490" y="610" />
              <mxPoint x="490" y="560" />
              <mxPoint x="530" y="560" />
            </Array>
          </mxGeometry>
        </mxCell>
        <mxCell id="4S7sWg-9xK0tMgOKGb8R-7" value="Extract&lt;br&gt;&lt;b&gt;Techniques&lt;/b&gt;" style="rounded=0;whiteSpace=wrap;html=1;fillColor=none;sketch=1;curveFitting=1;jiggle=2;strokeColor=#82b366;fontFamily=Comic Sans MS;fontSize=14;" vertex="1" parent="1">
          <mxGeometry x="510" y="590" width="100" height="40" as="geometry" />
        </mxCell>
        <mxCell id="4S7sWg-9xK0tMgOKGb8R-9" value="&lt;b&gt;Pull&lt;/b&gt;&lt;br&gt;Extraction" style="rounded=0;whiteSpace=wrap;html=1;fillColor=none;sketch=1;curveFitting=1;jiggle=2;strokeColor=#82b366;fontFamily=Comic Sans MS;fontSize=14;" vertex="1" parent="1">
          <mxGeometry x="590" y="200" width="100" height="40" as="geometry" />
        </mxCell>
        <mxCell id="4S7sWg-9xK0tMgOKGb8R-10" value="&lt;b&gt;Push&lt;/b&gt;&lt;div&gt;Extraction&lt;/div&gt;" style="rounded=0;whiteSpace=wrap;html=1;fillColor=none;sketch=1;curveFitting=1;jiggle=2;strokeColor=#82b366;fontFamily=Comic Sans MS;fontSize=14;" vertex="1" parent="1">
          <mxGeometry x="720" y="200" width="100" height="40" as="geometry" />
        </mxCell>
        <mxCell id="4S7sWg-9xK0tMgOKGb8R-11" value="&lt;b&gt;Full&lt;/b&gt;&lt;br&gt;Extraction" style="rounded=0;whiteSpace=wrap;html=1;fillColor=none;sketch=1;curveFitting=1;jiggle=2;strokeColor=#82b366;fontFamily=Comic Sans MS;fontSize=14;" vertex="1" parent="1">
          <mxGeometry x="300" y="320" width="100" height="40" as="geometry" />
        </mxCell>
        <mxCell id="4S7sWg-9xK0tMgOKGb8R-12" value="&lt;b&gt;Incremental&lt;/b&gt;&lt;br&gt;Extraction" style="rounded=0;whiteSpace=wrap;html=1;fillColor=none;sketch=1;curveFitting=1;jiggle=2;strokeColor=#82b366;fontFamily=Comic Sans MS;fontSize=14;" vertex="1" parent="1">
          <mxGeometry x="300" y="400" width="100" height="40" as="geometry" />
        </mxCell>
        <mxCell id="4S7sWg-9xK0tMgOKGb8R-13" value="&lt;b&gt;File parsing&lt;/b&gt;" style="rounded=0;whiteSpace=wrap;html=1;fillColor=none;sketch=1;curveFitting=1;jiggle=2;strokeColor=#82b366;fontFamily=Comic Sans MS;fontSize=14;" vertex="1" parent="1">
          <mxGeometry x="290" y="550" width="100" height="40" as="geometry" />
        </mxCell>
        <mxCell id="4S7sWg-9xK0tMgOKGb8R-14" value="&lt;b&gt;API calls&lt;/b&gt;" style="rounded=0;whiteSpace=wrap;html=1;fillColor=none;sketch=1;curveFitting=1;jiggle=2;strokeColor=#82b366;fontFamily=Comic Sans MS;fontSize=14;" vertex="1" parent="1">
          <mxGeometry x="290" y="600" width="100" height="40" as="geometry" />
        </mxCell>
        <mxCell id="4S7sWg-9xK0tMgOKGb8R-15" value="&lt;b&gt;Event based streaming&lt;/b&gt;" style="rounded=0;whiteSpace=wrap;html=1;fillColor=none;sketch=1;curveFitting=1;jiggle=2;strokeColor=#82b366;fontFamily=Comic Sans MS;fontSize=14;" vertex="1" parent="1">
          <mxGeometry x="290" y="650" width="100" height="40" as="geometry" />
        </mxCell>
        <mxCell id="4S7sWg-9xK0tMgOKGb8R-16" value="&lt;b&gt;Database querying&lt;/b&gt;" style="rounded=0;whiteSpace=wrap;html=1;fillColor=none;sketch=1;curveFitting=1;jiggle=2;strokeColor=#82b366;fontFamily=Comic Sans MS;fontSize=14;" vertex="1" parent="1">
          <mxGeometry x="400" y="500" width="100" height="40" as="geometry" />
        </mxCell>
        <mxCell id="4S7sWg-9xK0tMgOKGb8R-17" value="&lt;b&gt;CDC&lt;/b&gt;" style="rounded=0;whiteSpace=wrap;html=1;fillColor=none;sketch=1;curveFitting=1;jiggle=2;strokeColor=#82b366;fontFamily=Comic Sans MS;fontSize=14;" vertex="1" parent="1">
          <mxGeometry x="400" y="690" width="100" height="40" as="geometry" />
        </mxCell>
        <mxCell id="4S7sWg-9xK0tMgOKGb8R-18" value="&lt;b&gt;Web scraping&lt;/b&gt;" style="rounded=0;whiteSpace=wrap;html=1;fillColor=none;sketch=1;curveFitting=1;jiggle=2;strokeColor=#82b366;fontFamily=Comic Sans MS;fontSize=14;" vertex="1" parent="1">
          <mxGeometry x="490" y="740" width="100" height="40" as="geometry" />
        </mxCell>
        <mxCell id="4S7sWg-9xK0tMgOKGb8R-19" value="&lt;b&gt;Manual data extraction&lt;/b&gt;" style="rounded=0;whiteSpace=wrap;html=1;fillColor=none;sketch=1;curveFitting=1;jiggle=2;strokeColor=#82b366;fontFamily=Comic Sans MS;fontSize=14;" vertex="1" parent="1">
          <mxGeometry x="480" y="450" width="100" height="40" as="geometry" />
        </mxCell>
        <mxCell id="4S7sWg-9xK0tMgOKGb8R-21" value="" style="endArrow=classic;html=1;rounded=0;exitX=0.078;exitY=0.214;exitDx=0;exitDy=0;entryX=1;entryY=0.5;entryDx=0;entryDy=0;exitPerimeter=0;strokeWidth=5;sketch=1;curveFitting=1;jiggle=2;fillColor=#f5f5f5;strokeColor=#666666;" edge="1" parent="1" source="4S7sWg-9xK0tMgOKGb8R-1" target="4S7sWg-9xK0tMgOKGb8R-2">
          <mxGeometry width="50" height="50" relative="1" as="geometry">
            <mxPoint x="810" y="560" as="sourcePoint" />
            <mxPoint x="860" y="510" as="targetPoint" />
          </mxGeometry>
        </mxCell>
        <mxCell id="4S7sWg-9xK0tMgOKGb8R-22" value="" style="endArrow=classic;html=1;rounded=0;exitX=0.924;exitY=0.216;exitDx=0;exitDy=0;entryX=0;entryY=1;entryDx=0;entryDy=0;exitPerimeter=0;strokeWidth=5;sketch=1;curveFitting=1;jiggle=2;fillColor=#f5f5f5;strokeColor=#666666;" edge="1" parent="1" source="4S7sWg-9xK0tMgOKGb8R-1" target="4S7sWg-9xK0tMgOKGb8R-3">
          <mxGeometry width="50" height="50" relative="1" as="geometry">
            <mxPoint x="810" y="560" as="sourcePoint" />
            <mxPoint x="860" y="510" as="targetPoint" />
          </mxGeometry>
        </mxCell>
        <mxCell id="4S7sWg-9xK0tMgOKGb8R-23" value="" style="endArrow=classic;html=1;rounded=0;exitX=0.5;exitY=1;exitDx=0;exitDy=0;entryX=0.5;entryY=0;entryDx=0;entryDy=0;sketch=1;curveFitting=1;jiggle=2;strokeWidth=5;fillColor=#f5f5f5;strokeColor=#666666;" edge="1" parent="1" source="4S7sWg-9xK0tMgOKGb8R-1" target="4S7sWg-9xK0tMgOKGb8R-4">
          <mxGeometry width="50" height="50" relative="1" as="geometry">
            <mxPoint x="810" y="560" as="sourcePoint" />
            <mxPoint x="860" y="510" as="targetPoint" />
          </mxGeometry>
        </mxCell>
        <mxCell id="4S7sWg-9xK0tMgOKGb8R-25" value="" style="endArrow=classic;html=1;rounded=0;exitX=0.5;exitY=0;exitDx=0;exitDy=0;entryX=0.5;entryY=1;entryDx=0;entryDy=0;shadow=1;sketch=1;jiggle=2;curveFitting=1;strokeColor=#82b366;strokeWidth=3;align=center;verticalAlign=middle;fontFamily=Helvetica;fontSize=11;fontColor=default;labelBackgroundColor=default;flowAnimation=0;fillColor=#d5e8d4;" edge="1" parent="1" source="4S7sWg-9xK0tMgOKGb8R-2" target="4S7sWg-9xK0tMgOKGb8R-5">
          <mxGeometry width="50" height="50" relative="1" as="geometry">
            <mxPoint x="810" y="560" as="sourcePoint" />
            <mxPoint x="860" y="510" as="targetPoint" />
          </mxGeometry>
        </mxCell>
        <mxCell id="4S7sWg-9xK0tMgOKGb8R-28" value="" style="endArrow=classic;html=1;rounded=0;exitX=0;exitY=0;exitDx=0;exitDy=0;entryX=1;entryY=0.5;entryDx=0;entryDy=0;sketch=1;curveFitting=1;jiggle=2;flowAnimation=0;shadow=1;strokeWidth=3;fillColor=#d5e8d4;strokeColor=#82b366;" edge="1" parent="1" source="4S7sWg-9xK0tMgOKGb8R-2" target="4S7sWg-9xK0tMgOKGb8R-6">
          <mxGeometry width="50" height="50" relative="1" as="geometry">
            <mxPoint x="810" y="560" as="sourcePoint" />
            <mxPoint x="860" y="510" as="targetPoint" />
          </mxGeometry>
        </mxCell>
        <mxCell id="4S7sWg-9xK0tMgOKGb8R-30" value="" style="endArrow=classic;html=1;rounded=0;exitX=0;exitY=1;exitDx=0;exitDy=0;entryX=0.5;entryY=0;entryDx=0;entryDy=0;shadow=1;sketch=1;jiggle=2;curveFitting=1;strokeColor=#82b366;strokeWidth=3;align=center;verticalAlign=middle;fontFamily=Helvetica;fontSize=11;fontColor=default;labelBackgroundColor=default;flowAnimation=0;fillColor=#d5e8d4;" edge="1" parent="1" source="4S7sWg-9xK0tMgOKGb8R-2" target="4S7sWg-9xK0tMgOKGb8R-7">
          <mxGeometry width="50" height="50" relative="1" as="geometry">
            <mxPoint x="810" y="560" as="sourcePoint" />
            <mxPoint x="860" y="510" as="targetPoint" />
          </mxGeometry>
        </mxCell>
        <mxCell id="4S7sWg-9xK0tMgOKGb8R-40" style="edgeStyle=orthogonalEdgeStyle;rounded=0;orthogonalLoop=1;jettySize=auto;html=1;exitX=0;exitY=0.5;exitDx=0;exitDy=0;entryX=0.648;entryY=-0.057;entryDx=0;entryDy=0;entryPerimeter=0;sketch=1;jiggle=2;curveFitting=1;strokeColor=#82b366;align=center;verticalAlign=middle;fontFamily=Helvetica;fontSize=11;fontColor=default;labelBackgroundColor=default;endArrow=classic;fillColor=#d5e8d4;" edge="1" parent="1" source="4S7sWg-9xK0tMgOKGb8R-7" target="4S7sWg-9xK0tMgOKGb8R-17">
          <mxGeometry relative="1" as="geometry" />
        </mxCell>
        <mxCell id="4S7sWg-9xK0tMgOKGb8R-65" style="edgeStyle=orthogonalEdgeStyle;rounded=0;orthogonalLoop=1;jettySize=auto;html=1;exitX=0.5;exitY=0;exitDx=0;exitDy=0;entryX=0.5;entryY=1;entryDx=0;entryDy=0;sketch=1;curveFitting=1;jiggle=2;fillColor=#dae8fc;strokeColor=#6c8ebf;" edge="1" parent="1" source="4S7sWg-9xK0tMgOKGb8R-43" target="4S7sWg-9xK0tMgOKGb8R-60">
          <mxGeometry relative="1" as="geometry" />
        </mxCell>
        <mxCell id="4S7sWg-9xK0tMgOKGb8R-66" style="edgeStyle=orthogonalEdgeStyle;rounded=0;orthogonalLoop=1;jettySize=auto;html=1;exitX=0.5;exitY=0;exitDx=0;exitDy=0;entryX=0.5;entryY=1;entryDx=0;entryDy=0;sketch=1;jiggle=2;curveFitting=1;strokeColor=#6c8ebf;align=center;verticalAlign=middle;fontFamily=Helvetica;fontSize=11;fontColor=default;labelBackgroundColor=default;endArrow=classic;fillColor=#dae8fc;" edge="1" parent="1" source="4S7sWg-9xK0tMgOKGb8R-43" target="4S7sWg-9xK0tMgOKGb8R-61">
          <mxGeometry relative="1" as="geometry" />
        </mxCell>
        <mxCell id="4S7sWg-9xK0tMgOKGb8R-43" value="&lt;b&gt;Priocessing&lt;/b&gt;&lt;br&gt;types" style="rounded=0;whiteSpace=wrap;html=1;fillColor=none;sketch=1;curveFitting=1;jiggle=2;strokeColor=#6c8ebf;fontFamily=Comic Sans MS;fontSize=14;" vertex="1" parent="1">
          <mxGeometry x="1010" y="300" width="100" height="40" as="geometry" />
        </mxCell>
        <mxCell id="4S7sWg-9xK0tMgOKGb8R-67" style="edgeStyle=orthogonalEdgeStyle;rounded=0;orthogonalLoop=1;jettySize=auto;html=1;exitX=1;exitY=0.5;exitDx=0;exitDy=0;entryX=0;entryY=0.5;entryDx=0;entryDy=0;sketch=1;jiggle=2;curveFitting=1;strokeColor=#6c8ebf;align=center;verticalAlign=middle;fontFamily=Helvetica;fontSize=11;fontColor=default;labelBackgroundColor=default;endArrow=classic;fillColor=#dae8fc;" edge="1" parent="1" source="4S7sWg-9xK0tMgOKGb8R-44" target="4S7sWg-9xK0tMgOKGb8R-45">
          <mxGeometry relative="1" as="geometry" />
        </mxCell>
        <mxCell id="4S7sWg-9xK0tMgOKGb8R-68" style="edgeStyle=orthogonalEdgeStyle;rounded=0;orthogonalLoop=1;jettySize=auto;html=1;exitX=1;exitY=0.5;exitDx=0;exitDy=0;entryX=0;entryY=0.5;entryDx=0;entryDy=0;sketch=1;jiggle=2;curveFitting=1;strokeColor=#6c8ebf;align=center;verticalAlign=middle;fontFamily=Helvetica;fontSize=11;fontColor=default;labelBackgroundColor=default;endArrow=classic;fillColor=#dae8fc;" edge="1" parent="1" source="4S7sWg-9xK0tMgOKGb8R-44" target="4S7sWg-9xK0tMgOKGb8R-46">
          <mxGeometry relative="1" as="geometry" />
        </mxCell>
        <mxCell id="4S7sWg-9xK0tMgOKGb8R-44" value="&lt;b&gt;Load&lt;/b&gt;&lt;br&gt;methods" style="rounded=0;whiteSpace=wrap;html=1;fillColor=none;sketch=1;curveFitting=1;jiggle=2;strokeColor=#6c8ebf;fontFamily=Comic Sans MS;fontSize=14;align=center;verticalAlign=middle;fontColor=default;" vertex="1" parent="1">
          <mxGeometry x="1160" y="340" width="100" height="40" as="geometry" />
        </mxCell>
        <mxCell id="4S7sWg-9xK0tMgOKGb8R-70" style="edgeStyle=orthogonalEdgeStyle;rounded=0;orthogonalLoop=1;jettySize=auto;html=1;exitX=1;exitY=0.5;exitDx=0;exitDy=0;entryX=0;entryY=0.5;entryDx=0;entryDy=0;sketch=1;jiggle=2;curveFitting=1;strokeColor=#6c8ebf;align=center;verticalAlign=middle;fontFamily=Helvetica;fontSize=11;fontColor=default;labelBackgroundColor=default;endArrow=classic;fillColor=#dae8fc;" edge="1" parent="1" source="4S7sWg-9xK0tMgOKGb8R-45" target="4S7sWg-9xK0tMgOKGb8R-49">
          <mxGeometry relative="1" as="geometry">
            <Array as="points">
              <mxPoint x="1420" y="270" />
              <mxPoint x="1420" y="220" />
            </Array>
          </mxGeometry>
        </mxCell>
        <mxCell id="4S7sWg-9xK0tMgOKGb8R-71" style="edgeStyle=orthogonalEdgeStyle;rounded=0;orthogonalLoop=1;jettySize=auto;html=1;exitX=1;exitY=0.5;exitDx=0;exitDy=0;entryX=0;entryY=0.5;entryDx=0;entryDy=0;sketch=1;jiggle=2;curveFitting=1;strokeColor=#6c8ebf;align=center;verticalAlign=middle;fontFamily=Helvetica;fontSize=11;fontColor=default;labelBackgroundColor=default;endArrow=classic;fillColor=#dae8fc;" edge="1" parent="1" source="4S7sWg-9xK0tMgOKGb8R-45" target="4S7sWg-9xK0tMgOKGb8R-50">
          <mxGeometry relative="1" as="geometry" />
        </mxCell>
        <mxCell id="4S7sWg-9xK0tMgOKGb8R-72" style="edgeStyle=orthogonalEdgeStyle;rounded=0;orthogonalLoop=1;jettySize=auto;html=1;exitX=1;exitY=0.5;exitDx=0;exitDy=0;entryX=0;entryY=0.5;entryDx=0;entryDy=0;sketch=1;jiggle=2;curveFitting=1;strokeColor=#6c8ebf;align=center;verticalAlign=middle;fontFamily=Helvetica;fontSize=11;fontColor=default;labelBackgroundColor=default;endArrow=classic;fillColor=#dae8fc;" edge="1" parent="1" source="4S7sWg-9xK0tMgOKGb8R-45" target="4S7sWg-9xK0tMgOKGb8R-51">
          <mxGeometry relative="1" as="geometry">
            <Array as="points">
              <mxPoint x="1420" y="270" />
              <mxPoint x="1420" y="330" />
            </Array>
          </mxGeometry>
        </mxCell>
        <mxCell id="4S7sWg-9xK0tMgOKGb8R-45" value="&lt;b&gt;Full&lt;/b&gt;&lt;br&gt;load" style="rounded=0;whiteSpace=wrap;html=1;fillColor=none;sketch=1;curveFitting=1;jiggle=2;strokeColor=#6c8ebf;fontFamily=Comic Sans MS;fontSize=14;align=center;verticalAlign=middle;fontColor=default;" vertex="1" parent="1">
          <mxGeometry x="1310" y="250" width="100" height="40" as="geometry" />
        </mxCell>
        <mxCell id="4S7sWg-9xK0tMgOKGb8R-73" style="edgeStyle=orthogonalEdgeStyle;rounded=0;orthogonalLoop=1;jettySize=auto;html=1;exitX=1;exitY=0.5;exitDx=0;exitDy=0;entryX=0;entryY=0.5;entryDx=0;entryDy=0;sketch=1;jiggle=2;curveFitting=1;strokeColor=#6c8ebf;align=center;verticalAlign=middle;fontFamily=Helvetica;fontSize=11;fontColor=default;labelBackgroundColor=default;endArrow=classic;fillColor=#dae8fc;" edge="1" parent="1" source="4S7sWg-9xK0tMgOKGb8R-46" target="4S7sWg-9xK0tMgOKGb8R-52">
          <mxGeometry relative="1" as="geometry">
            <Array as="points">
              <mxPoint x="1420" y="445" />
              <mxPoint x="1420" y="400" />
            </Array>
          </mxGeometry>
        </mxCell>
        <mxCell id="4S7sWg-9xK0tMgOKGb8R-46" value="&lt;b&gt;Incremental &lt;/b&gt;load" style="rounded=0;whiteSpace=wrap;html=1;fillColor=none;sketch=1;curveFitting=1;jiggle=2;strokeColor=#6c8ebf;fontFamily=Comic Sans MS;fontSize=14;align=center;verticalAlign=middle;fontColor=default;" vertex="1" parent="1">
          <mxGeometry x="1310" y="425" width="100" height="40" as="geometry" />
        </mxCell>
        <mxCell id="4S7sWg-9xK0tMgOKGb8R-49" value="trauncat &amp;amp; insert" style="rounded=0;whiteSpace=wrap;html=1;fillColor=none;sketch=1;curveFitting=1;jiggle=2;strokeColor=#6c8ebf;fontFamily=Comic Sans MS;fontSize=14;align=center;verticalAlign=middle;fontColor=default;" vertex="1" parent="1">
          <mxGeometry x="1440" y="200" width="100" height="40" as="geometry" />
        </mxCell>
        <mxCell id="4S7sWg-9xK0tMgOKGb8R-50" value="upsert" style="rounded=0;whiteSpace=wrap;html=1;fillColor=none;sketch=1;curveFitting=1;jiggle=2;strokeColor=#6c8ebf;fontFamily=Comic Sans MS;fontSize=14;align=center;verticalAlign=middle;fontColor=default;" vertex="1" parent="1">
          <mxGeometry x="1440" y="250" width="100" height="40" as="geometry" />
        </mxCell>
        <mxCell id="4S7sWg-9xK0tMgOKGb8R-51" value="Drop, create, insert" style="rounded=0;whiteSpace=wrap;html=1;fillColor=none;sketch=1;curveFitting=1;jiggle=2;strokeColor=#6c8ebf;fontFamily=Comic Sans MS;fontSize=14;align=center;verticalAlign=middle;fontColor=default;" vertex="1" parent="1">
          <mxGeometry x="1440" y="310" width="100" height="40" as="geometry" />
        </mxCell>
        <mxCell id="4S7sWg-9xK0tMgOKGb8R-52" value="upsert" style="rounded=0;whiteSpace=wrap;html=1;fillColor=none;sketch=1;curveFitting=1;jiggle=2;strokeColor=#6c8ebf;fontFamily=Comic Sans MS;fontSize=14;align=center;verticalAlign=middle;fontColor=default;" vertex="1" parent="1">
          <mxGeometry x="1440" y="380" width="100" height="40" as="geometry" />
        </mxCell>
        <mxCell id="4S7sWg-9xK0tMgOKGb8R-53" value="append" style="rounded=0;whiteSpace=wrap;html=1;fillColor=none;sketch=1;curveFitting=1;jiggle=2;strokeColor=#6c8ebf;fontFamily=Comic Sans MS;fontSize=14;align=center;verticalAlign=middle;fontColor=default;" vertex="1" parent="1">
          <mxGeometry x="1440" y="430" width="100" height="40" as="geometry" />
        </mxCell>
        <mxCell id="4S7sWg-9xK0tMgOKGb8R-54" value="merge" style="rounded=0;whiteSpace=wrap;html=1;fillColor=none;sketch=1;curveFitting=1;jiggle=2;strokeColor=#6c8ebf;fontFamily=Comic Sans MS;fontSize=14;align=center;verticalAlign=middle;fontColor=default;" vertex="1" parent="1">
          <mxGeometry x="1440" y="490" width="100" height="40" as="geometry" />
        </mxCell>
        <mxCell id="4S7sWg-9xK0tMgOKGb8R-76" style="edgeStyle=orthogonalEdgeStyle;rounded=0;orthogonalLoop=1;jettySize=auto;html=1;exitX=0.5;exitY=1;exitDx=0;exitDy=0;entryX=0.5;entryY=0;entryDx=0;entryDy=0;sketch=1;jiggle=2;curveFitting=1;strokeColor=#6c8ebf;align=center;verticalAlign=middle;fontFamily=Helvetica;fontSize=11;fontColor=default;labelBackgroundColor=default;endArrow=classic;fillColor=#dae8fc;" edge="1" parent="1" source="4S7sWg-9xK0tMgOKGb8R-55" target="4S7sWg-9xK0tMgOKGb8R-56">
          <mxGeometry relative="1" as="geometry" />
        </mxCell>
        <mxCell id="4S7sWg-9xK0tMgOKGb8R-77" style="edgeStyle=orthogonalEdgeStyle;rounded=0;orthogonalLoop=1;jettySize=auto;html=1;exitX=0.5;exitY=1;exitDx=0;exitDy=0;sketch=1;jiggle=2;curveFitting=1;strokeColor=#6c8ebf;align=center;verticalAlign=middle;fontFamily=Helvetica;fontSize=11;fontColor=default;labelBackgroundColor=default;endArrow=classic;fillColor=#dae8fc;" edge="1" parent="1" source="4S7sWg-9xK0tMgOKGb8R-55" target="4S7sWg-9xK0tMgOKGb8R-57">
          <mxGeometry relative="1" as="geometry" />
        </mxCell>
        <mxCell id="4S7sWg-9xK0tMgOKGb8R-78" style="edgeStyle=orthogonalEdgeStyle;rounded=0;orthogonalLoop=1;jettySize=auto;html=1;exitX=0.5;exitY=1;exitDx=0;exitDy=0;entryX=0.5;entryY=0;entryDx=0;entryDy=0;sketch=1;jiggle=2;curveFitting=1;strokeColor=#6c8ebf;align=center;verticalAlign=middle;fontFamily=Helvetica;fontSize=11;fontColor=default;labelBackgroundColor=default;endArrow=classic;fillColor=#dae8fc;" edge="1" parent="1" source="4S7sWg-9xK0tMgOKGb8R-55" target="4S7sWg-9xK0tMgOKGb8R-58">
          <mxGeometry relative="1" as="geometry" />
        </mxCell>
        <mxCell id="4S7sWg-9xK0tMgOKGb8R-55" value="Slow Changing Dimension&lt;br&gt;&lt;b&gt;SCD&lt;/b&gt;" style="rounded=0;whiteSpace=wrap;html=1;fillColor=none;sketch=1;curveFitting=1;jiggle=2;strokeColor=#6c8ebf;fontFamily=Comic Sans MS;fontSize=14;align=center;verticalAlign=middle;fontColor=default;" vertex="1" parent="1">
          <mxGeometry x="1080" y="540" width="240" height="40" as="geometry" />
        </mxCell>
        <mxCell id="4S7sWg-9xK0tMgOKGb8R-56" value="&lt;b&gt;SCD 0&lt;/b&gt;&lt;br&gt;No historization" style="rounded=0;whiteSpace=wrap;html=1;fillColor=none;sketch=1;curveFitting=1;jiggle=2;strokeColor=#6c8ebf;fontFamily=Comic Sans MS;fontSize=14;align=center;verticalAlign=middle;fontColor=default;" vertex="1" parent="1">
          <mxGeometry x="1050" y="620" width="130" height="40" as="geometry" />
        </mxCell>
        <mxCell id="4S7sWg-9xK0tMgOKGb8R-57" value="&lt;b&gt;SCD 1&lt;/b&gt;&lt;br&gt;overwrite" style="rounded=0;whiteSpace=wrap;html=1;fillColor=none;sketch=1;curveFitting=1;jiggle=2;strokeColor=#6c8ebf;fontFamily=Comic Sans MS;fontSize=14;align=center;verticalAlign=middle;fontColor=default;" vertex="1" parent="1">
          <mxGeometry x="1200" y="620" width="100" height="40" as="geometry" />
        </mxCell>
        <mxCell id="4S7sWg-9xK0tMgOKGb8R-58" value="&lt;b&gt;SCD 2&lt;/b&gt;&lt;br&gt;historization" style="rounded=0;whiteSpace=wrap;html=1;fillColor=none;sketch=1;curveFitting=1;jiggle=2;strokeColor=#6c8ebf;fontFamily=Comic Sans MS;fontSize=14;align=center;verticalAlign=middle;fontColor=default;" vertex="1" parent="1">
          <mxGeometry x="1320" y="620" width="100" height="40" as="geometry" />
        </mxCell>
        <mxCell id="4S7sWg-9xK0tMgOKGb8R-59" value="&lt;b&gt;SCD _&lt;/b&gt;" style="rounded=0;whiteSpace=wrap;html=1;fillColor=none;sketch=1;curveFitting=1;jiggle=2;strokeColor=#6c8ebf;fontFamily=Comic Sans MS;fontSize=14;align=center;verticalAlign=middle;fontColor=default;" vertex="1" parent="1">
          <mxGeometry x="1440" y="620" width="100" height="40" as="geometry" />
        </mxCell>
        <mxCell id="4S7sWg-9xK0tMgOKGb8R-60" value="&lt;b&gt;Batch &lt;/b&gt;processing" style="rounded=0;whiteSpace=wrap;html=1;fillColor=none;sketch=1;curveFitting=1;jiggle=2;strokeColor=#6c8ebf;fontFamily=Comic Sans MS;fontSize=14;align=center;verticalAlign=middle;fontColor=default;" vertex="1" parent="1">
          <mxGeometry x="940" y="200" width="100" height="40" as="geometry" />
        </mxCell>
        <mxCell id="4S7sWg-9xK0tMgOKGb8R-61" value="&lt;b&gt;Stream &lt;/b&gt;processing" style="rounded=0;whiteSpace=wrap;html=1;fillColor=none;sketch=1;curveFitting=1;jiggle=2;strokeColor=#6c8ebf;fontFamily=Comic Sans MS;fontSize=14;align=center;verticalAlign=middle;fontColor=default;" vertex="1" parent="1">
          <mxGeometry x="1080" y="200" width="100" height="40" as="geometry" />
        </mxCell>
        <mxCell id="4S7sWg-9xK0tMgOKGb8R-62" value="" style="endArrow=classic;html=1;rounded=0;entryX=0.5;entryY=1;entryDx=0;entryDy=0;strokeWidth=3;fillColor=#dae8fc;strokeColor=#6c8ebf;sketch=1;curveFitting=1;jiggle=2;" edge="1" parent="1" source="4S7sWg-9xK0tMgOKGb8R-3" target="4S7sWg-9xK0tMgOKGb8R-43">
          <mxGeometry width="50" height="50" relative="1" as="geometry">
            <mxPoint x="1240" y="420" as="sourcePoint" />
            <mxPoint x="1290" y="370" as="targetPoint" />
          </mxGeometry>
        </mxCell>
        <mxCell id="4S7sWg-9xK0tMgOKGb8R-63" value="" style="endArrow=classic;html=1;rounded=0;exitX=1;exitY=0;exitDx=0;exitDy=0;entryX=0;entryY=1;entryDx=0;entryDy=0;sketch=1;jiggle=2;curveFitting=1;strokeColor=#6c8ebf;strokeWidth=3;align=center;verticalAlign=middle;fontFamily=Helvetica;fontSize=11;fontColor=default;labelBackgroundColor=default;fillColor=#dae8fc;" edge="1" parent="1" source="4S7sWg-9xK0tMgOKGb8R-3" target="4S7sWg-9xK0tMgOKGb8R-44">
          <mxGeometry width="50" height="50" relative="1" as="geometry">
            <mxPoint x="1240" y="420" as="sourcePoint" />
            <mxPoint x="1290" y="370" as="targetPoint" />
          </mxGeometry>
        </mxCell>
        <mxCell id="4S7sWg-9xK0tMgOKGb8R-64" value="" style="endArrow=classic;html=1;rounded=0;exitX=1;exitY=1;exitDx=0;exitDy=0;entryX=0.5;entryY=0;entryDx=0;entryDy=0;sketch=1;jiggle=2;curveFitting=1;strokeColor=#6c8ebf;strokeWidth=3;align=center;verticalAlign=middle;fontFamily=Helvetica;fontSize=11;fontColor=default;labelBackgroundColor=default;fillColor=#dae8fc;" edge="1" parent="1" source="4S7sWg-9xK0tMgOKGb8R-3" target="4S7sWg-9xK0tMgOKGb8R-55">
          <mxGeometry width="50" height="50" relative="1" as="geometry">
            <mxPoint x="1240" y="420" as="sourcePoint" />
            <mxPoint x="1290" y="370" as="targetPoint" />
          </mxGeometry>
        </mxCell>
        <mxCell id="4S7sWg-9xK0tMgOKGb8R-74" style="edgeStyle=orthogonalEdgeStyle;rounded=0;orthogonalLoop=1;jettySize=auto;html=1;exitX=1;exitY=0.5;exitDx=0;exitDy=0;entryX=0.014;entryY=0.362;entryDx=0;entryDy=0;entryPerimeter=0;sketch=1;jiggle=2;curveFitting=1;strokeColor=#6c8ebf;align=center;verticalAlign=middle;fontFamily=Helvetica;fontSize=11;fontColor=default;labelBackgroundColor=default;endArrow=classic;fillColor=#dae8fc;" edge="1" parent="1" source="4S7sWg-9xK0tMgOKGb8R-46" target="4S7sWg-9xK0tMgOKGb8R-53">
          <mxGeometry relative="1" as="geometry" />
        </mxCell>
        <mxCell id="4S7sWg-9xK0tMgOKGb8R-75" style="edgeStyle=orthogonalEdgeStyle;rounded=0;orthogonalLoop=1;jettySize=auto;html=1;exitX=1;exitY=0.5;exitDx=0;exitDy=0;entryX=-0.009;entryY=0.574;entryDx=0;entryDy=0;entryPerimeter=0;sketch=1;jiggle=2;curveFitting=1;strokeColor=#6c8ebf;align=center;verticalAlign=middle;fontFamily=Helvetica;fontSize=11;fontColor=default;labelBackgroundColor=default;endArrow=classic;fillColor=#dae8fc;" edge="1" parent="1" source="4S7sWg-9xK0tMgOKGb8R-46" target="4S7sWg-9xK0tMgOKGb8R-54">
          <mxGeometry relative="1" as="geometry">
            <Array as="points">
              <mxPoint x="1420" y="445" />
              <mxPoint x="1420" y="513" />
            </Array>
          </mxGeometry>
        </mxCell>
        <mxCell id="4S7sWg-9xK0tMgOKGb8R-79" style="edgeStyle=orthogonalEdgeStyle;rounded=0;orthogonalLoop=1;jettySize=auto;html=1;exitX=0.5;exitY=1;exitDx=0;exitDy=0;entryX=0.443;entryY=0.113;entryDx=0;entryDy=0;entryPerimeter=0;sketch=1;jiggle=2;curveFitting=1;strokeColor=#6c8ebf;align=center;verticalAlign=middle;fontFamily=Helvetica;fontSize=11;fontColor=default;labelBackgroundColor=default;endArrow=classic;fillColor=#dae8fc;" edge="1" parent="1" source="4S7sWg-9xK0tMgOKGb8R-55" target="4S7sWg-9xK0tMgOKGb8R-59">
          <mxGeometry relative="1" as="geometry" />
        </mxCell>
        <mxCell id="4S7sWg-9xK0tMgOKGb8R-80" value="Data&lt;br&gt;&lt;b&gt;enrichment&lt;/b&gt;" style="rounded=0;whiteSpace=wrap;html=1;fillColor=none;sketch=1;curveFitting=1;jiggle=2;strokeColor=#d6b656;fontFamily=Comic Sans MS;fontSize=14;align=center;verticalAlign=middle;" vertex="1" parent="1">
          <mxGeometry x="610" y="780" width="130" height="40" as="geometry" />
        </mxCell>
        <mxCell id="4S7sWg-9xK0tMgOKGb8R-81" value="Data&lt;br&gt;&lt;b&gt;integration&lt;/b&gt;" style="rounded=0;whiteSpace=wrap;html=1;fillColor=none;sketch=1;curveFitting=1;jiggle=2;strokeColor=#d6b656;fontFamily=Comic Sans MS;fontSize=14;align=center;verticalAlign=middle;fontColor=default;" vertex="1" parent="1">
          <mxGeometry x="610" y="840" width="130" height="40" as="geometry" />
        </mxCell>
        <mxCell id="4S7sWg-9xK0tMgOKGb8R-82" value="&lt;b&gt;Derived columns&lt;/b&gt;" style="rounded=0;whiteSpace=wrap;html=1;fillColor=none;sketch=1;curveFitting=1;jiggle=2;strokeColor=#d6b656;fontFamily=Comic Sans MS;fontSize=14;align=center;verticalAlign=middle;fontColor=default;" vertex="1" parent="1">
          <mxGeometry x="610" y="900" width="130" height="40" as="geometry" />
        </mxCell>
        <mxCell id="4S7sWg-9xK0tMgOKGb8R-83" value="Data &lt;b&gt;Normalization &amp;amp; Standardization&lt;/b&gt;" style="rounded=0;whiteSpace=wrap;html=1;fillColor=none;sketch=1;curveFitting=1;jiggle=2;strokeColor=#d6b656;fontFamily=Comic Sans MS;fontSize=14;align=center;verticalAlign=middle;fontColor=default;" vertex="1" parent="1">
          <mxGeometry x="1060" y="780" width="150" height="40" as="geometry" />
        </mxCell>
        <mxCell id="4S7sWg-9xK0tMgOKGb8R-84" value="&lt;b&gt;Business rules &amp;amp; logic&lt;/b&gt;" style="rounded=0;whiteSpace=wrap;html=1;fillColor=none;sketch=1;curveFitting=1;jiggle=2;strokeColor=#d6b656;fontFamily=Comic Sans MS;fontSize=14;align=center;verticalAlign=middle;fontColor=default;" vertex="1" parent="1">
          <mxGeometry x="1060" y="840" width="130" height="40" as="geometry" />
        </mxCell>
        <mxCell id="4S7sWg-9xK0tMgOKGb8R-85" value="Data &lt;b&gt;aggregations&lt;/b&gt;" style="rounded=0;whiteSpace=wrap;html=1;fillColor=none;sketch=1;curveFitting=1;jiggle=2;strokeColor=#d6b656;fontFamily=Comic Sans MS;fontSize=14;align=center;verticalAlign=middle;fontColor=default;" vertex="1" parent="1">
          <mxGeometry x="1060" y="900" width="130" height="40" as="geometry" />
        </mxCell>
        <mxCell id="4S7sWg-9xK0tMgOKGb8R-101" style="edgeStyle=orthogonalEdgeStyle;rounded=0;orthogonalLoop=1;jettySize=auto;html=1;exitX=0.5;exitY=1;exitDx=0;exitDy=0;entryX=1;entryY=0.5;entryDx=0;entryDy=0;sketch=1;jiggle=2;curveFitting=1;strokeColor=#d6b656;align=center;verticalAlign=middle;fontFamily=Helvetica;fontSize=11;fontColor=default;labelBackgroundColor=default;endArrow=classic;fillColor=#fff2cc;" edge="1" parent="1" source="4S7sWg-9xK0tMgOKGb8R-86" target="4S7sWg-9xK0tMgOKGb8R-87">
          <mxGeometry relative="1" as="geometry" />
        </mxCell>
        <mxCell id="4S7sWg-9xK0tMgOKGb8R-102" style="edgeStyle=orthogonalEdgeStyle;rounded=0;orthogonalLoop=1;jettySize=auto;html=1;exitX=0.5;exitY=1;exitDx=0;exitDy=0;entryX=0;entryY=0.5;entryDx=0;entryDy=0;fillColor=#fff2cc;strokeColor=#d6b656;sketch=1;curveFitting=1;jiggle=2;align=center;verticalAlign=middle;fontFamily=Helvetica;fontSize=11;fontColor=default;labelBackgroundColor=default;endArrow=classic;" edge="1" parent="1" source="4S7sWg-9xK0tMgOKGb8R-86" target="4S7sWg-9xK0tMgOKGb8R-93">
          <mxGeometry relative="1" as="geometry" />
        </mxCell>
        <mxCell id="4S7sWg-9xK0tMgOKGb8R-103" style="edgeStyle=orthogonalEdgeStyle;rounded=0;orthogonalLoop=1;jettySize=auto;html=1;exitX=0.5;exitY=1;exitDx=0;exitDy=0;entryX=1;entryY=0.5;entryDx=0;entryDy=0;sketch=1;jiggle=2;curveFitting=1;strokeColor=#d6b656;align=center;verticalAlign=middle;fontFamily=Helvetica;fontSize=11;fontColor=default;labelBackgroundColor=default;endArrow=classic;fillColor=#fff2cc;" edge="1" parent="1" source="4S7sWg-9xK0tMgOKGb8R-86" target="4S7sWg-9xK0tMgOKGb8R-88">
          <mxGeometry relative="1" as="geometry" />
        </mxCell>
        <mxCell id="4S7sWg-9xK0tMgOKGb8R-104" style="edgeStyle=orthogonalEdgeStyle;rounded=0;orthogonalLoop=1;jettySize=auto;html=1;exitX=0.5;exitY=1;exitDx=0;exitDy=0;entryX=0;entryY=0.5;entryDx=0;entryDy=0;sketch=1;jiggle=2;curveFitting=1;strokeColor=#d6b656;align=center;verticalAlign=middle;fontFamily=Helvetica;fontSize=11;fontColor=default;labelBackgroundColor=default;endArrow=classic;fillColor=#fff2cc;" edge="1" parent="1" source="4S7sWg-9xK0tMgOKGb8R-86" target="4S7sWg-9xK0tMgOKGb8R-92">
          <mxGeometry relative="1" as="geometry" />
        </mxCell>
        <mxCell id="4S7sWg-9xK0tMgOKGb8R-105" style="edgeStyle=orthogonalEdgeStyle;rounded=0;orthogonalLoop=1;jettySize=auto;html=1;exitX=0.5;exitY=1;exitDx=0;exitDy=0;entryX=1;entryY=0.5;entryDx=0;entryDy=0;sketch=1;jiggle=2;curveFitting=1;strokeColor=#d6b656;align=center;verticalAlign=middle;fontFamily=Helvetica;fontSize=11;fontColor=default;labelBackgroundColor=default;endArrow=classic;fillColor=#fff2cc;" edge="1" parent="1" source="4S7sWg-9xK0tMgOKGb8R-86" target="4S7sWg-9xK0tMgOKGb8R-89">
          <mxGeometry relative="1" as="geometry">
            <Array as="points">
              <mxPoint x="904" y="1110" />
            </Array>
          </mxGeometry>
        </mxCell>
        <mxCell id="4S7sWg-9xK0tMgOKGb8R-106" style="edgeStyle=orthogonalEdgeStyle;rounded=0;orthogonalLoop=1;jettySize=auto;html=1;exitX=0.5;exitY=1;exitDx=0;exitDy=0;entryX=0;entryY=0.5;entryDx=0;entryDy=0;sketch=1;jiggle=2;curveFitting=1;strokeColor=#d6b656;align=center;verticalAlign=middle;fontFamily=Helvetica;fontSize=11;fontColor=default;labelBackgroundColor=default;endArrow=classic;fillColor=#fff2cc;" edge="1" parent="1" source="4S7sWg-9xK0tMgOKGb8R-86" target="4S7sWg-9xK0tMgOKGb8R-91">
          <mxGeometry relative="1" as="geometry" />
        </mxCell>
        <mxCell id="4S7sWg-9xK0tMgOKGb8R-108" style="edgeStyle=orthogonalEdgeStyle;rounded=0;orthogonalLoop=1;jettySize=auto;html=1;exitX=0.5;exitY=1;exitDx=0;exitDy=0;sketch=1;jiggle=2;curveFitting=1;strokeColor=#d6b656;align=center;verticalAlign=middle;fontFamily=Helvetica;fontSize=11;fontColor=default;labelBackgroundColor=default;endArrow=classic;fillColor=#fff2cc;" edge="1" parent="1" source="4S7sWg-9xK0tMgOKGb8R-86" target="4S7sWg-9xK0tMgOKGb8R-90">
          <mxGeometry relative="1" as="geometry">
            <Array as="points">
              <mxPoint x="904" y="1040" />
              <mxPoint x="904" y="1040" />
            </Array>
          </mxGeometry>
        </mxCell>
        <mxCell id="4S7sWg-9xK0tMgOKGb8R-86" value="Data &lt;b&gt;cleaning&lt;/b&gt;" style="rounded=0;whiteSpace=wrap;html=1;fillColor=none;sketch=1;curveFitting=1;jiggle=2;strokeColor=#d6b656;fontFamily=Comic Sans MS;fontSize=14;align=center;verticalAlign=middle;fontColor=default;" vertex="1" parent="1">
          <mxGeometry x="839" y="940" width="130" height="40" as="geometry" />
        </mxCell>
        <mxCell id="4S7sWg-9xK0tMgOKGb8R-87" value="&lt;b&gt;Remove duplicates&lt;/b&gt;" style="rounded=0;whiteSpace=wrap;html=1;fillColor=none;sketch=1;curveFitting=1;jiggle=2;strokeColor=#d6b656;fontFamily=Comic Sans MS;fontSize=14;align=center;verticalAlign=middle;fontColor=default;" vertex="1" parent="1">
          <mxGeometry x="670" y="970" width="130" height="40" as="geometry" />
        </mxCell>
        <mxCell id="4S7sWg-9xK0tMgOKGb8R-88" value="&lt;b&gt;Data filtering&lt;/b&gt;" style="rounded=0;whiteSpace=wrap;html=1;fillColor=none;sketch=1;curveFitting=1;jiggle=2;strokeColor=#d6b656;fontFamily=Comic Sans MS;fontSize=14;align=center;verticalAlign=middle;fontColor=default;" vertex="1" parent="1">
          <mxGeometry x="702" y="1030" width="130" height="40" as="geometry" />
        </mxCell>
        <mxCell id="4S7sWg-9xK0tMgOKGb8R-89" value="&lt;b&gt;Handling missing data&lt;/b&gt;" style="rounded=0;whiteSpace=wrap;html=1;fillColor=none;sketch=1;curveFitting=1;jiggle=2;strokeColor=#d6b656;fontFamily=Comic Sans MS;fontSize=14;align=center;verticalAlign=middle;fontColor=default;" vertex="1" parent="1">
          <mxGeometry x="730" y="1090" width="130" height="40" as="geometry" />
        </mxCell>
        <mxCell id="4S7sWg-9xK0tMgOKGb8R-90" value="&lt;b&gt;Handiling invalid values&lt;/b&gt;" style="rounded=0;whiteSpace=wrap;html=1;fillColor=none;sketch=1;curveFitting=1;jiggle=2;strokeColor=#d6b656;fontFamily=Comic Sans MS;fontSize=14;align=center;verticalAlign=middle;fontColor=default;" vertex="1" parent="1">
          <mxGeometry x="838" y="1150" width="130" height="40" as="geometry" />
        </mxCell>
        <mxCell id="4S7sWg-9xK0tMgOKGb8R-91" value="&lt;b&gt;Handling unwanted spaces&lt;/b&gt;" style="rounded=0;whiteSpace=wrap;html=1;fillColor=none;sketch=1;curveFitting=1;jiggle=2;strokeColor=#d6b656;fontFamily=Comic Sans MS;fontSize=14;align=center;verticalAlign=middle;fontColor=default;" vertex="1" parent="1">
          <mxGeometry x="950" y="1090" width="130" height="40" as="geometry" />
        </mxCell>
        <mxCell id="4S7sWg-9xK0tMgOKGb8R-92" value="&lt;b&gt;Data type casting&lt;/b&gt;" style="rounded=0;whiteSpace=wrap;html=1;fillColor=none;sketch=1;curveFitting=1;jiggle=2;strokeColor=#d6b656;fontFamily=Comic Sans MS;fontSize=14;align=center;verticalAlign=middle;fontColor=default;" vertex="1" parent="1">
          <mxGeometry x="980" y="1030" width="130" height="40" as="geometry" />
        </mxCell>
        <mxCell id="4S7sWg-9xK0tMgOKGb8R-93" value="&lt;b&gt;Outlier detection&lt;/b&gt;" style="rounded=0;whiteSpace=wrap;html=1;fillColor=none;sketch=1;curveFitting=1;jiggle=2;strokeColor=#d6b656;fontFamily=Comic Sans MS;fontSize=14;align=center;verticalAlign=middle;fontColor=default;" vertex="1" parent="1">
          <mxGeometry x="1010" y="970" width="130" height="40" as="geometry" />
        </mxCell>
        <mxCell id="4S7sWg-9xK0tMgOKGb8R-94" value="" style="endArrow=classic;html=1;rounded=0;exitX=0;exitY=0.5;exitDx=0;exitDy=0;entryX=1;entryY=0.5;entryDx=0;entryDy=0;sketch=1;jiggle=2;curveFitting=1;strokeColor=#d6b656;strokeWidth=3;align=center;verticalAlign=middle;fontFamily=Helvetica;fontSize=11;fontColor=default;labelBackgroundColor=default;fillColor=#fff2cc;" edge="1" parent="1" source="4S7sWg-9xK0tMgOKGb8R-4" target="4S7sWg-9xK0tMgOKGb8R-80">
          <mxGeometry width="50" height="50" relative="1" as="geometry">
            <mxPoint x="880" y="830" as="sourcePoint" />
            <mxPoint x="930" y="780" as="targetPoint" />
          </mxGeometry>
        </mxCell>
        <mxCell id="4S7sWg-9xK0tMgOKGb8R-95" value="" style="endArrow=classic;html=1;rounded=0;exitX=0;exitY=0.5;exitDx=0;exitDy=0;entryX=1;entryY=0.5;entryDx=0;entryDy=0;sketch=1;jiggle=2;curveFitting=1;strokeColor=#d6b656;strokeWidth=3;align=center;verticalAlign=middle;fontFamily=Helvetica;fontSize=11;fontColor=default;labelBackgroundColor=default;fillColor=#fff2cc;" edge="1" parent="1" source="4S7sWg-9xK0tMgOKGb8R-4" target="4S7sWg-9xK0tMgOKGb8R-81">
          <mxGeometry width="50" height="50" relative="1" as="geometry">
            <mxPoint x="880" y="830" as="sourcePoint" />
            <mxPoint x="930" y="780" as="targetPoint" />
          </mxGeometry>
        </mxCell>
        <mxCell id="4S7sWg-9xK0tMgOKGb8R-96" value="" style="endArrow=classic;html=1;rounded=0;exitX=0;exitY=0.5;exitDx=0;exitDy=0;entryX=1;entryY=0.5;entryDx=0;entryDy=0;sketch=1;jiggle=2;curveFitting=1;strokeColor=#d6b656;strokeWidth=3;align=center;verticalAlign=middle;fontFamily=Helvetica;fontSize=11;fontColor=default;labelBackgroundColor=default;fillColor=#fff2cc;" edge="1" parent="1" source="4S7sWg-9xK0tMgOKGb8R-4" target="4S7sWg-9xK0tMgOKGb8R-82">
          <mxGeometry width="50" height="50" relative="1" as="geometry">
            <mxPoint x="880" y="830" as="sourcePoint" />
            <mxPoint x="930" y="780" as="targetPoint" />
          </mxGeometry>
        </mxCell>
        <mxCell id="4S7sWg-9xK0tMgOKGb8R-97" value="" style="endArrow=classic;html=1;rounded=0;exitX=1;exitY=0.5;exitDx=0;exitDy=0;entryX=0;entryY=0.5;entryDx=0;entryDy=0;sketch=1;jiggle=2;curveFitting=1;strokeColor=#d6b656;strokeWidth=3;align=center;verticalAlign=middle;fontFamily=Helvetica;fontSize=11;fontColor=default;labelBackgroundColor=default;fillColor=#fff2cc;" edge="1" parent="1" source="4S7sWg-9xK0tMgOKGb8R-4" target="4S7sWg-9xK0tMgOKGb8R-83">
          <mxGeometry width="50" height="50" relative="1" as="geometry">
            <mxPoint x="880" y="830" as="sourcePoint" />
            <mxPoint x="930" y="780" as="targetPoint" />
          </mxGeometry>
        </mxCell>
        <mxCell id="4S7sWg-9xK0tMgOKGb8R-98" value="" style="endArrow=classic;html=1;rounded=0;exitX=1;exitY=0.5;exitDx=0;exitDy=0;entryX=0;entryY=0.5;entryDx=0;entryDy=0;sketch=1;jiggle=2;curveFitting=1;strokeColor=#d6b656;strokeWidth=3;align=center;verticalAlign=middle;fontFamily=Helvetica;fontSize=11;fontColor=default;labelBackgroundColor=default;fillColor=#fff2cc;" edge="1" parent="1" source="4S7sWg-9xK0tMgOKGb8R-4" target="4S7sWg-9xK0tMgOKGb8R-84">
          <mxGeometry width="50" height="50" relative="1" as="geometry">
            <mxPoint x="880" y="830" as="sourcePoint" />
            <mxPoint x="930" y="780" as="targetPoint" />
          </mxGeometry>
        </mxCell>
        <mxCell id="4S7sWg-9xK0tMgOKGb8R-99" value="" style="endArrow=classic;html=1;rounded=0;exitX=1;exitY=0.5;exitDx=0;exitDy=0;entryX=0;entryY=0.5;entryDx=0;entryDy=0;sketch=1;jiggle=2;curveFitting=1;strokeColor=#d6b656;strokeWidth=3;align=center;verticalAlign=middle;fontFamily=Helvetica;fontSize=11;fontColor=default;labelBackgroundColor=default;fillColor=#fff2cc;" edge="1" parent="1" source="4S7sWg-9xK0tMgOKGb8R-4" target="4S7sWg-9xK0tMgOKGb8R-85">
          <mxGeometry width="50" height="50" relative="1" as="geometry">
            <mxPoint x="880" y="830" as="sourcePoint" />
            <mxPoint x="930" y="780" as="targetPoint" />
          </mxGeometry>
        </mxCell>
        <mxCell id="4S7sWg-9xK0tMgOKGb8R-100" value="" style="endArrow=classic;html=1;rounded=0;exitX=0.5;exitY=1;exitDx=0;exitDy=0;entryX=0.5;entryY=0;entryDx=0;entryDy=0;strokeWidth=3;fillColor=#fff2cc;strokeColor=#d6b656;sketch=1;curveFitting=1;jiggle=2;" edge="1" parent="1" source="4S7sWg-9xK0tMgOKGb8R-4" target="4S7sWg-9xK0tMgOKGb8R-86">
          <mxGeometry width="50" height="50" relative="1" as="geometry">
            <mxPoint x="880" y="830" as="sourcePoint" />
            <mxPoint x="930" y="780" as="targetPoint" />
          </mxGeometry>
        </mxCell>
        <mxCell id="4S7sWg-9xK0tMgOKGb8R-109" value="" style="verticalLabelPosition=bottom;verticalAlign=top;html=1;shape=mxgraph.basic.tick;fillColor=#d5e8d4;strokeColor=#82b366;fillStyle=solid;" vertex="1" parent="1">
          <mxGeometry x="670" y="190" width="30" height="30" as="geometry" />
        </mxCell>
        <mxCell id="4S7sWg-9xK0tMgOKGb8R-110" value="" style="verticalLabelPosition=bottom;verticalAlign=top;html=1;shape=mxgraph.basic.tick;fillColor=#d5e8d4;strokeColor=#82b366;fillStyle=solid;align=center;fontFamily=Helvetica;fontSize=12;fontColor=default;" vertex="1" parent="1">
          <mxGeometry x="380" y="310" width="30" height="30" as="geometry" />
        </mxCell>
        <mxCell id="4S7sWg-9xK0tMgOKGb8R-111" value="" style="verticalLabelPosition=bottom;verticalAlign=top;html=1;shape=mxgraph.basic.tick;fillColor=#d5e8d4;strokeColor=#82b366;fillStyle=solid;align=center;fontFamily=Helvetica;fontSize=12;fontColor=default;" vertex="1" parent="1">
          <mxGeometry x="370" y="540" width="30" height="30" as="geometry" />
        </mxCell>
        <mxCell id="4S7sWg-9xK0tMgOKGb8R-114" value="" style="verticalLabelPosition=bottom;verticalAlign=top;html=1;shape=mxgraph.basic.tick;fillColor=#fff2cc;strokeColor=#d6b656;fillStyle=solid;align=center;fontFamily=Helvetica;fontSize=12;" vertex="1" parent="1">
          <mxGeometry x="894.5" y="730" width="85.5" height="80" as="geometry" />
        </mxCell>
        <mxCell id="4S7sWg-9xK0tMgOKGb8R-116" value="" style="verticalLabelPosition=bottom;verticalAlign=top;html=1;shape=mxgraph.basic.tick;fillColor=#dae8fc;strokeColor=#6c8ebf;fillStyle=solid;" vertex="1" parent="1">
          <mxGeometry x="1020" y="190" width="30" height="30" as="geometry" />
        </mxCell>
        <mxCell id="4S7sWg-9xK0tMgOKGb8R-120" value="" style="verticalLabelPosition=bottom;verticalAlign=top;html=1;shape=mxgraph.basic.tick;fillColor=#dae8fc;strokeColor=#6c8ebf;fillStyle=solid;" vertex="1" parent="1">
          <mxGeometry x="1280" y="610" width="30" height="30" as="geometry" />
        </mxCell>
        <mxCell id="4S7sWg-9xK0tMgOKGb8R-122" value="" style="verticalLabelPosition=bottom;verticalAlign=top;html=1;shape=mxgraph.basic.tick;fillColor=#dae8fc;strokeColor=#6c8ebf;fillStyle=solid;" vertex="1" parent="1">
          <mxGeometry x="1390" y="240" width="30" height="30" as="geometry" />
        </mxCell>
        <mxCell id="4S7sWg-9xK0tMgOKGb8R-125" value="&lt;b&gt;&lt;font style=&quot;font-size: 32px;&quot;&gt;ELT Operations&lt;/font&gt;&lt;/b&gt;" style="rounded=0;whiteSpace=wrap;html=1;fillColor=#ffe6cc;sketch=1;curveFitting=1;jiggle=2;strokeColor=#d79b00;fontFamily=Comic Sans MS;fontSize=14;" vertex="1" parent="1">
          <mxGeometry x="280" y="100" width="1270" height="40" as="geometry" />
        </mxCell>
      </root>
    </mxGraphModel>
  </diagram>
</mxfile>
